<svg width="24" height="24" viewBox="0 0 24 24" fill="none" xmlns="http://www.w3.org/2000/svg">
<path fill-rule="evenodd" clip-rule="evenodd" d="M4.69279 20.1379H19.2508C20.1536 20.1379 20.8871 19.348 20.9436 18.4451V9.3605C20.9436 9.13895 20.8469 8.96572 20.6852 8.87245C20.5828 8.78766 20.4528 8.73975 20.3228 8.73975H5.93414C5.59558 8.73975 5.36987 8.96545 5.36987 9.30401C5.36987 9.64257 5.652 9.86827 5.93414 9.86827H19.815V18.4451C19.815 18.7273 19.5893 19.0094 19.2508 19.0094H4.69279C4.41066 19.0094 4.12853 18.7837 4.12853 18.4451V5.69279C4.12853 5.41066 4.35423 5.12853 4.69279 5.12853H6.27273V6.03135C6.27273 6.70846 6.83699 7.27273 7.51411 7.27273H8.64263C9.31975 7.27273 9.88401 6.70846 9.88401 6.03135V5.12853H13.8339V6.03135C13.8339 6.70846 14.3981 7.27273 15.0752 7.27273H16.2038C16.8809 7.27273 17.4451 6.70846 17.4451 6.03135V5.12853H19.3072C19.5893 5.12853 19.8715 5.35423 19.8715 5.69279V7.10345C19.8715 7.44201 20.0972 7.66771 20.4357 7.66771C20.7743 7.66771 21 7.38558 21 7.10345V5.69279C21 4.73354 20.21 4 19.3072 4H16.8809C16.5423 4 16.3166 4.28213 16.3166 4.56426V6.03135C16.3166 6.08777 16.2602 6.1442 16.2038 6.1442H15.0752C15.0188 6.1442 14.9624 6.08777 14.9624 6.03135V4.56426C14.9624 4.22571 14.6803 4 14.3981 4H9.31975C8.98119 4 8.75549 4.28213 8.75549 4.56426V6.03135C8.75549 6.08777 8.69906 6.1442 8.64263 6.1442H7.51411C7.45768 6.1442 7.40125 6.08777 7.40125 6.03135V4.56426C7.40125 4.22571 7.11912 4 6.83699 4H4.69279C3.73354 4 3 4.78997 3 5.69279V18.4451C3 19.4044 3.78997 20.1379 4.69279 20.1379ZM12.5924 15.8496C12.5924 17.0345 11.6896 17.7116 10.1661 17.7116C8.75545 17.7116 7.90906 17.0345 7.90906 16.4138C7.90906 15.7367 8.69903 15.7367 8.69903 15.7931C8.86831 16.4138 9.43257 16.696 10.1097 16.696C10.7868 16.696 11.2946 16.3574 11.2946 15.8496C11.2946 15.2853 10.9561 15.0596 10.1661 15.0596H9.88398C9.43257 15.0596 9.26329 14.8903 9.26329 14.6646V14.6082C9.26329 14.3825 9.37614 14.2696 9.489 14.1568L10.8432 12.9718H8.69903C8.24762 12.9718 8.07834 12.7461 8.07834 12.4076V12.3511C8.07834 12.0126 8.24762 11.7869 8.69903 11.7869H11.8025C12.3103 11.7869 12.536 12.069 12.536 12.4076V12.464C12.536 12.7461 12.4796 12.9718 12.141 13.2539L11.0125 14.2132C11.9718 14.326 12.5924 14.8903 12.5924 15.8496ZM13.2696 13.5923C13.4389 13.9309 13.721 13.9309 14.0031 13.7052L14.7367 13.2538V17.0343C14.7367 17.4293 14.906 17.655 15.301 17.655H15.4702C15.8088 17.655 16.0345 17.4293 16.0345 17.0343V12.2945C16.0345 11.8995 15.8652 11.6738 15.4702 11.6738H14.906L13.3825 12.7459C13.0439 12.9716 13.0439 13.1973 13.2132 13.4795L13.2696 13.5923Z" fill="#010F05"/>
</svg>
