<svg width="20" height="20" viewBox="0 0 20 20" fill="none" xmlns="http://www.w3.org/2000/svg">
<g id="Property 1=Close">
<path id="Union" fill-rule="evenodd" clip-rule="evenodd" d="M6.59619 6.11091C6.40093 5.91565 6.08435 5.91565 5.88909 6.11091C5.69382 6.30618 5.69383 6.62276 5.88909 6.81802L9.07107 10L5.88909 13.182C5.69383 13.3772 5.69383 13.6938 5.88909 13.8891C6.08435 14.0843 6.40093 14.0843 6.59619 13.8891L9.77817 10.7071L12.9602 13.8891C13.1554 14.0843 13.472 14.0843 13.6673 13.8891C13.8625 13.6938 13.8625 13.3772 13.6673 13.182L10.4853 10L13.6673 6.81802C13.8625 6.62276 13.8625 6.30617 13.6673 6.11091C13.472 5.91565 13.1554 5.91565 12.9602 6.11091L9.77817 9.29289L6.59619 6.11091Z" fill="#7C858A"/>
</g>
</svg>
